<svg xmlns="http://www.w3.org/2000/svg" role="img" viewBox="22.59 99.09 801.32 172.82">
    <path fill="#d8b871"
          d="M408 167c0-14.01 2.287-30.226-.228-44-1.021-5.589-7.207-10.726-12.728-7.243-5.184 3.271-5.042 8.827-5.044 14.243v34c0 17.535-2.815 37.986 2.04 55 7.67 26.877 37.169 43.524 63.96 34.135 6.768-2.372 12.597-5.911 17.91-10.725 23.338-21.145 20.49-59.43-4.91-77.621-9.699-6.947-22.243-9.509-34-8.699-10.255.706-18.642 5.276-27 10.91m373 9c5.635 0 13.857 1.499 18.981-1.179 5.369-2.806 6.835-10.576.96-13.793C795.867 158.248 786.66 160 781 160c0-8.363 2.418-21.161-.742-28.957-2.938-7.247-13.369-7.03-16.4.001-3.106 7.204-.858 19.189-.858 26.956v41c0 8.242-.753 16.875.805 25 2.414 12.594 10.639 24.091 23.195 28.25 6.926 2.294 24.076 4.204 21.639-8.246-1.39-7.099-9.295-6.834-14.639-8.642-4.182-1.416-7.695-4.654-10.005-8.363C780.39 221.212 781 214.52 781 208v-32M79 154.428C60.4798 157.087 44.5871 170.522 40.2361 189 37.8897 198.965 39 209.826 39 220c0 8.636-1.3286 18.5.2284 26.999.7314 3.993 3.6637 7.179 7.7724 7.753C59.5552 256.507 57 238.453 57 231c0-11.459-2.3542-25.939.7886-37C62.003 179.168 77.8461 168.58 93 173.599c24.938 8.259 20 37.869 20 58.401 0 7.525-2.429 24.225 9.999 22.728 4.597-.554 7.215-4.426 7.812-8.728 1.341-9.67.189-20.24.189-30 0-9.896.997-20.438-2.093-30-6.702-20.739-28.189-34.69-49.907-31.572M235 197c-10.394 0-22.82-1.882-32.985.279-5.233 1.112-8.299 6.616-6.272 11.677C199.105 217.348 216.774 214 224 214c6.87 0 18.769 2.267 24.891-1.179 4.031-2.269 4.106-6.73 4.107-10.821.004-8.598-2.878-16.921-7.772-24-4.098-5.927-9.185-10.956-15.226-14.899-23.832-15.554-57.459-5.732-70.676 18.899-6.589 12.279-6.866 27.929-2.575 41 7.873 23.978 35.344 37.111 59.251 30.844 6.985-1.831 19.46-5.973 21.562-13.859 1.656-6.209-3.177-11.78-9.562-10.692-7.821 1.333-13.602 7.697-22 8.536-18.989 1.899-37.491-16.631-34.56-35.829 3.216-21.071 25.711-35.171 45.56-25.597 8.876 4.281 13.946 12.043 18 20.597m318-40.572c-5.683.823-10.939 2.649-16 5.368-31.101 16.704-33.551 59.56-8 82.02 4.853 4.266 10.789 7.701 17 9.564 7.219 2.166 16.57 2.51 24 1.295 42.218-6.9 54.599-63.913 21-88.914-4.547-3.384-9.538-6.063-15-7.606-7.496-2.117-15.253-2.849-23-1.727m122-.003c-6.508.889-12.311 2.655-18 6.029-35.904 21.29-30.37 75.084 8 90.082 7.607 2.974 16.933 3.258 25 2.28 30.203-3.663 49.393-37.753 39.452-65.816-7.936-22.406-31.28-35.738-54.452-32.575M361 207h-8c-.925 21.549-17.761 40.649-40 41.892-21.58 1.206-41.471-19.004-42.903-39.892-1.707-24.913 22.265-44.807 45.903-42.907 8.65.696 14.5 5.466 22 8.999 2.96 1.394 7.756.128 6.654-4.082-1.029-3.934-6.373-6.42-9.654-8.086-9.964-5.057-21.049-6.688-32-4.843-26.534 4.472-44.62 30.3-40.699 56.919.913 6.195 3.479 12.704 6.765 18 16.501 26.596 53.661 32.038 76.844 10.7 4.745-4.367 8.157-9.952 10.967-15.7 3.219-6.584 4.118-13.77 4.123-21z"/>
    <path fill="#1b2f4d"
          d="M435 173.44c-32.685 5.25-36.441 51.445-6 63.092 5.14 1.966 11.593 1.966 17 1.167 4.233-.625 8.42-2.334 12-4.665 28.838-18.778 10.917-65.042-23-59.594m119 .028c-21.61 4.076-32.032 29.938-21.467 48.532 6.888 12.122 20.968 17.929 34.467 15.674 19.276-3.219 31.348-24.34 25.154-42.674-3.741-11.074-13.026-18.589-24.154-21.112-4.525-1.026-9.419-1.285-14-.42m121 .05c-32.839 7.006-33.116 55.492-1 63.721 5.076 1.301 10.908 1.042 16-.058 4.334-.937 8.504-2.827 12-5.571 26.756-21.006 6.71-65.284-27-58.092z"/>
    <path fill="#d8b871"
          d="M312 240v-8c-4.605-.377-9.058-1.433-12.999-3.97-25.316-16.296-4.117-56.576 22.999-43.055 3.802 1.895 6.891 4.704 9.518 8.026 3.247 4.106 4.73 8.891 5.482 13.999h8c-.154-7.21-2.211-14.252-6.681-19.996-3.515-4.518-8.085-8.218-13.319-10.561-4.32-1.934-8.316-2.443-13-2.443-5.087 0-10.37.192-15 2.554-24.049 12.27-24.037 47.868 0 60.172 4.952 2.535 9.508 3.259 15 3.274m-14-22c2.421-.688 4.742-1.441 5.765-4.059 1.914-4.902-2.114-14.2 7.239-14.434 3.827-.096 8.062 3.71 8.42 7.494.225 2.383-1.261 4.57-.269 6.94 1.086 2.595 3.409 3.367 5.845 4.059 1.798-4.995 3.702-9.549 2.775-15-2.182-12.84-19.953-16.754-28.385-7.695-6.289 6.757-4.503 15.053-1.39 22.695z"/>
</svg>
