<svg xmlns="http://www.w3.org/2000/svg" role="img" viewBox="23.62 99.62 799.76 172.26">
    <path fill="#d8b871"
          d="M408 167v-37l-.04-4-.149-2-.384-1.999-.321-.996-.424-.986-1.196-1.871-1.619-1.545-1.886-.999-.986-.281-.996-.156h-1.998l-.996.156-1.946.705-1.741 1.29-.715.83-1 1.871-.455 1.982-.089.999-.054 2-.004 1-.001 3v77l.039 5 .135 2c.119 1.349.41 2.686.725 4 .241 1.007.517 2.011.822 3l.977 3 .755 2c.398 1.018.859 2.015 1.332 3 .826 1.717 1.727 3.4 2.763 5 1.616 2.496 3.495 4.831 5.542 6.985 2.67 2.811 5.653 5.359 8.91 7.467 1.6 1.036 3.283 1.937 5 2.763 2.266 1.089 4.604 1.995 7 2.756.992.316 1.993.608 3 .873.991.261 1.99.51 3 .691l2 .291 2 .135 5 .039c1.665-.002 3.337.025 5-.09 1.682-.115 3.339-.388 5-.665 1.34-.223 2.673-.457 4-.748l2-.539c2.054-.613 4.082-1.376 6-2.335 1.377-.688 2.715-1.476 4-2.323 1.363-.898 2.715-1.81 4-2.818 1.039-.814 2.03-1.68 2.999-2.575 1.015-.937 2.01-1.909 2.962-2.911l1.865-1.996 1.706-2c1.025-1.297 2.021-2.612 2.92-4 .836-1.291 1.568-2.636 2.275-4l.488-1c.482-.979.924-1.984 1.321-3 1.013-2.588 1.676-5.287 2.253-8 .492-2.312.957-4.638 1.121-7 .07-.998.082-2 .082-3 0-1.338-.052-2.667-.162-4l-.116-1-.469-3c-.223-1.338-.437-2.679-.748-4-.319-1.354-.739-2.678-1.168-4-.773-2.377-1.586-4.76-2.706-7-.868-1.736-1.899-3.392-2.983-5-.686-1.019-1.384-2.044-2.158-3l-1.666-1.999-1.856-1.986-1.964-1.922c-.976-.888-1.958-1.758-2.996-2.575-.966-.761-1.973-1.482-3-2.158-1.624-1.07-3.264-2.106-5-2.987-1.297-.657-2.643-1.236-4-1.757l-3-1.096-2-.599-1-.256-3-.661c-1.986-.405-3.975-.773-6-.914-.997-.07-2.001-.085-3-.085l-3 .034-2 .131-1 .116-3 .469c-1.335.222-2.686.418-4 .748l-2 .536-3 .966-2 .702c-1.367.52-2.715 1.085-4 1.786-1.014.554-2.007 1.137-2.995 1.735l-1.96 1.243-1.886 1.22-.488.336L408 167m373 8l12-.001c1.33-.007 2.674.026 3.999-.108 1.349-.136 2.696-.396 3.892-1.07l.881-.563.794-.692.688-.794.964-1.816.365-1.959-.036-.994-.164-.988-.705-1.906-1.192-1.675-1.619-1.255c-1.183-.68-2.529-.935-3.868-1.07-1.325-.134-2.669-.101-3.999-.108L781 160v-19l-.004-3-.011-1-.094-2-.119-1-.206-.999-.745-1.982-1.255-1.871-.794-.83-.881-.715-.935-.575-1.96-.705-1.996-.206-.999.05-.997.156-1.96.705-1.816 1.29-.794.83-.692.911-1 1.946c-.619 1.591-.674 3.312-.727 4.995l-.014 2-.001 3v67l.004 4c.009 1 .017 2.002.085 3 .138 2.014.513 3.998.756 6l.325 3 .347 2c.298 1.363.734 2.685 1.194 4l.383 1 .424 1 .474 1 .526 1c.585 1.02 1.192 2.021 1.845 3 .684 1.026 1.407 2.016 2.155 2.996l1.666 1.964.909.947.947.908 1.964 1.656c1.256.98 2.602 1.876 3.996 2.649l1 .556 2 1 2 .859c1.295.534 2.65.941 4 1.306 1.316.356 2.65.663 4 .859 1.325.192 2.662.273 4 .281l2-.04.999-.089.996-.17.987-.285 1.885-1 .854-.715.764-.83 1.182-1.871.399-.986.267-.996.134-.999-.134-1.995-.666-1.95-.529-.922-1.417-1.619-.854-.656-1.885-.968-1.983-.586-2.999-.593c-1.015-.214-2.021-.474-3-.819l-2-.812-1-.497-1.999-1.232-.997-.745-.989-.82-1.907-1.829-.883-.972-.806-.989-1.33-1.996-.941-2-.344-1-.271-1-.348-2c-.209-1.654-.176-3.336-.184-5l-.001-6v-34M80 154.428l-3 .493c-1.6781.286-3.3532.563-5 1.003-1.3559.362-2.6888.809-4 1.308-1.0126.386-2.0207.797-3 1.261-1.7421.826-3.3969 1.8-5 2.87-1.7485 1.166-3.4233 2.43-4.9992 3.821-1.3672 1.208-2.6477 2.502-3.9074 3.82l-.909.997L48.5177 172l-.7569 1c-.7087.986-1.4033 1.979-2.061 3-1.2331 1.914-2.3623 3.888-3.2245 6-.9206 2.255-1.5164 4.624-2.0255 7l-.5293 3c-.2797 1.66-.5885 3.323-.7507 5-.161 1.663-.1584 3.331-.169 5L39 206v31l.0039 5 .0902 3 .25 1.999.5494 1.982.4244.964.5401.922 1.4205 1.619 1.7763 1.195.9637.422.9861.309 1.9954.29 1.9961-.176.9885-.283.9714-.426 1.8156-1.251 1.4861-1.675.5633-.935.7454-1.96c.2694-.971.3366-1.995.3896-2.996.0705-1.33.0418-2.668.044-4v-38c.0037-2.333-.0602-4.691.3256-7 .2263-1.355.5826-2.704 1.0371-4 .3552-1.013.7115-2.021 1.1558-3 .4703-1.036 1.005-2.039 1.615-3 1.3747-2.165 3.0633-4.128 4.9066-5.907 1.5242-1.47 3.17-2.823 4.9599-3.96.9608-.609 1.964-1.144 3-1.614.9786-.445 1.9871-.801 3-1.156.9755-.342 1.989-.629 3-.845l2-.334 2-.14h2l2 .14 1 .142c1.0145.144 2.0198.427 3 .718 1.3659.406 2.691.915 4 1.475l1 .477c1.0469.505 2.0492 1.139 3 1.804l1.996 1.529.989.856.975.908 1.852 1.922.848.989 1.49 1.996c1.253 1.857 2.201 3.902 2.973 6 .715 1.941 1.274 3.951 1.576 6 .342 2.317.297 4.665.301 7v37c.002 1.332-.027 2.67.044 4 .053 1.001.12 2.025.39 2.996l.745 1.96.563.935 1.486 1.675 1.816 1.254.971.434.989.297.997.177h1.998l1.982-.474.964-.434.922-.562 1.619-1.486 1.196-1.816.424-.971.321-.989.384-1.996.095-1c.057-1 .084-1.998.09-3l.004-6v-29l-.004-4c-.009-1-.017-2.002-.086-3-.138-2.014-.499-4.003-.78-6-.187-1.334-.32-2.679-.591-4-.417-2.033-.928-4.045-1.629-6-.741-2.065-1.677-4.058-2.695-6-1.097-2.093-2.299-4.125-3.744-6-1.638-2.125-3.513-4.08-5.475-5.907-.965-.898-1.958-1.761-2.996-2.575-.969-.76-1.976-1.472-3-2.155-1.603-1.07-3.258-2.044-5-2.87-.979-.464-1.987-.875-3-1.261-1.311-.499-2.6441-.946-4-1.308-1.9714-.527-3.9888-.841-6-1.17-1.6611-.272-3.318-.556-5-.664-1.0006-.064-1.9981-.062-3-.047l-2 .127-2 .258M235 197h-21l-6 .001-3 .043-1.999.184-1.986.514-.971.437-.935.563-1.675 1.486-.691.881-.985 1.906-.281.989-.144.996-.01.996.345 1.964.79 1.851.551.845 1.385 1.45 1.711 1.036 1.91.579 1.986.224 2.999.054 5 .001h28l3-.015 1-.029 1.996-.184.989-.206 1.906-.745 1.675-1.255 1.255-1.675.745-1.906.206-.989.119-.997c.07-1 .099-1.996.101-2.999.004-1.672-.055-3.343-.292-5-.241-1.687-.654-3.352-1.078-5l-.838-3-.328-1c-.622-1.699-1.325-3.365-2.1-5-.817-1.723-1.706-3.398-2.743-5-.897-1.385-1.864-2.746-2.939-4l-.858-1a98.4028 98.4028 0 0 0-3.82-3.985c-1.29-1.273-2.599-2.531-3.996-3.686-.962-.795-1.962-1.533-3-2.224-1.282-.853-2.63-1.619-4-2.32-1.639-.839-3.292-1.642-5-2.332-2.593-1.047-5.268-1.847-8-2.438-1.65-.358-3.319-.676-5-.844-1.991-.2-4.001-.177-6-.17-1.335.004-2.666.02-4 .089l-2 .199c-1.005.131-2.008.313-3 .519-1.34.278-2.685.553-4 .938-1.009.296-2.005.613-3 .953l-2 .754c-1.018.398-2.014.861-3 1.332-2.423 1.157-4.814 2.438-7 4.004-1.785 1.278-3.414 2.736-4.999 4.251l-1.986 1.964c-.953.99-1.922 1.963-2.83 2.996-1.115 1.268-2.144 2.595-3.08 4-1.266 1.902-2.337 3.94-3.32 6-.471.986-.934 1.982-1.332 3l-.754 2c-.34.995-.657 1.991-.953 3-.385 1.315-.66 2.66-.938 4-.206.992-.388 1.995-.519 3l-.199 2c-.069 1.334-.085 2.665-.089 4-.007 1.998-.03 4.009.17 6 .168 1.682.496 3.345.833 5 .412 2.024.872 4.035 1.516 6 .672 2.05 1.485 4.07 2.451 6 1.414 2.828 3.151 5.489 5.069 7.999 1.285 1.682 2.633 3.332 4.131 4.83 1.501 1.503 3.16 2.847 4.83 4.156 1.295 1.015 2.606 2.033 3.999 2.914l1 .633c1.305.772 2.626 1.501 4 2.145 3.189 1.493 6.563 2.564 10 3.308 1.65.358 3.319.676 5 .844 1.33.134 2.665.155 4 .167l3 .004c1.668-.002 3.334.001 5-.09 1.345-.073 2.676-.287 4-.526 1.682-.303 3.363-.664 5-1.155 1.7-.51 3.357-1.165 5-1.834l3-1.285 1-.484 2-1.105c1.024-.644 2.036-1.297 2.985-2.05 1.309-1.041 2.559-2.18 3.581-3.511.906-1.178 1.646-2.494 1.956-3.96l.141-1.999-.141-.997-.28-.989-.985-1.906-1.485-1.675-1.816-1.251-.971-.425-.989-.28-.997-.142-1.999.127c-1.424.263-2.757.923-4 1.642-1.682.972-3.288 2.072-5 2.994-1.61.867-3.278 1.588-5 2.201-1.308.466-2.642.889-4 1.182-.993.214-1.989.343-3 .425l-2 .078-2 .01c-1.674-.023-3.344-.044-5-.321-1.357-.226-2.699-.589-4-1.034-1.706-.582-3.399-1.203-5-2.042l-2-1.157-1.999-1.369-.997-.753c-1.361-1.025-2.647-2.173-3.82-3.409-1.43-1.509-2.669-3.183-3.821-4.91-1.065-1.595-2.06-3.242-2.834-5-.567-1.287-1.017-2.639-1.369-4-.341-1.317-.69-2.647-.86-4l-.21-2-.071-2 .021-2 .134-2c.088-1.009.284-2.011.495-3l.491-2c.388-1.359.798-2.704 1.369-4l.99-2 1.192-2 1.333-1.999c1.215-1.72 2.524-3.359 4.049-4.817 1.502-1.435 3.182-2.67 4.907-3.821 1.595-1.065 3.242-2.06 5-2.834 1.287-.567 2.639-1.017 4-1.369 1.317-.341 2.647-.69 4-.86l1-.126 1-.084c1.332-.068 2.666-.104 4-.05 1 .041 2.011.095 3 .261l1 .167c1.356.284 2.692.618 4 1.08 1.724.608 3.389 1.389 5 2.248 1.025.547 2.015 1.135 2.999 1.752l.997.673 1.965 1.46 1.865 1.62 1.706 1.789c1.075 1.227 2.012 2.559 2.92 3.911l1.21 1.997 1.062 1.977.926 1.865.449 1.001.241.488L235 197m318-40.536c-1.009.178-2.004.43-3 .666l-2 .5c-1.341.344-2.683.689-4 1.119-1.017.333-2.017.708-3 1.13-2.812 1.208-5.467 2.77-8 4.481-1.372.926-2.744 1.883-3.999 2.966-1.015.875-2.025 1.755-2.962 2.714l-1.865 1.964-1.706 1.996c-1.029 1.3-2.025 2.62-2.945 4-1.885 2.826-3.446 5.842-4.697 9-.901 2.273-1.637 4.61-2.158 7-.432 1.982-.653 3.994-.939 6-.237 1.661-.558 3.318-.6 5l.055 2 .105 1 .29 2 .291 2c.187 1.334.32 2.679.591 4 .485 2.371 1.12 4.707 1.895 7 .576 1.705 1.215 3.388 2.021 5 .688 1.377 1.476 2.715 2.323 4 .898 1.363 1.81 2.715 2.818 4 1.096 1.397 2.283 2.715 3.522 3.985 2.716 2.784 5.691 5.351 8.96 7.467 1.6 1.036 3.283 1.937 5 2.763 2.266 1.089 4.604 1.995 7 2.756.992.316 1.993.608 3 .873.991.261 1.99.51 3 .691.992.179 1.993.318 3 .375 1.666.093 3.332.088 5 .09 2 .002 4.002.02 6-.09 1.006-.054 2.005-.192 3-.349l2-.369c1.339-.286 2.684-.553 4-.938 1.007-.295 2.014-.592 3-.953l2-.754c1.012-.421 2.012-.858 3-1.332 2.083-1.002 4.095-2.124 6-3.436 4.653-3.203 8.728-7.235 12.076-11.779 1.404-1.907 2.684-3.911 3.801-6 .865-1.618 1.622-3.295 2.297-5 .775-1.955 1.427-3.956 1.926-6 .243-.993.447-1.992.614-3l.416-3 .291-2 .29-2 .105-1 .055-2c-.033-1.346-.253-2.672-.45-4l-.291-2c-.187-1.334-.32-2.679-.591-4-.346-1.688-.752-3.362-1.288-5-.562-1.716-1.26-3.371-2.036-5-.814-1.71-1.714-3.371-2.679-5-.818-1.382-1.749-2.704-2.695-4-1.513-2.073-3.114-4.092-4.931-5.91-.928-.927-1.913-1.779-2.914-2.625L591 165.9l-1-.741c-.987-.708-1.973-1.416-3-2.066-.975-.617-1.971-1.196-3-1.719-1.299-.66-2.646-1.224-4-1.758-1.637-.646-3.299-1.238-5-1.692-1.646-.44-3.322-.72-5-1.003-1.66-.281-3.324-.589-5-.751-1.99-.193-4.002-.187-6-.166-1 .01-2.002.016-3 .086-1.009.071-2.004.198-3 .374m123-.036l-3 .493c-1.677.285-3.357.555-5 1.006-2.421.663-4.73 1.655-7 2.714-1.011.472-2.017.954-3 1.482-1.37.735-2.706 1.537-4 2.4-2.461 1.641-4.816 3.474-6.91 5.567-1.227 1.227-2.349 2.548-3.421 3.911-.77.978-1.514 1.98-2.229 2.999-1.56 2.222-2.965 4.54-4.117 7-1.493 3.189-2.564 6.563-3.308 10-.358 1.65-.676 3.319-.844 5-.2 1.992-.169 4-.171 6-.003 2.669-.056 5.348.289 8l.327 2 .399 2c.225 1.004.442 2.011.731 3 .7 2.39 1.521 4.742 2.577 7 .974 2.081 2.128 4.072 3.376 6 .886 1.369 1.812 2.717 2.819 4 1.092 1.391 2.272 2.709 3.522 3.96 1.251 1.25 2.569 2.43 3.96 3.522 1.283 1.007 2.631 1.933 4 2.819 2.536 1.642 5.186 3.124 8 4.234 1.951.77 3.972 1.314 6 1.835l2 .5c1.326.315 2.649.637 4 .83 1.99.284 3.994.293 6 .299 1.667.006 3.334.002 5-.089 1.006-.054 2.004-.195 3-.338l3-.496c1.345-.232 2.681-.479 4-.833 2.756-.739 5.431-1.794 8-3.028 2.083-1.002 4.096-2.124 6-3.436 2.501-1.722 4.818-3.694 6.985-5.818.977-.958 1.91-1.95 2.831-2.962l1.666-1.999.757-1c.71-.987 1.393-1.985 2.061-3 .848-1.287 1.63-2.626 2.327-4 .657-1.297 1.236-2.643 1.757-4 .878-2.283 1.693-4.59 2.148-7 .188-.994.301-1.993.392-3l.242-3 .255-2c.132-.997.293-1.992.32-3 .054-2.021-.349-4.002-.586-6l-.314-3-.305-2c-.506-2.736-1.338-5.416-2.362-8-.958-2.42-2.091-4.767-3.431-7-1.039-1.732-2.186-3.404-3.423-5-1.343-1.733-2.785-3.382-4.359-4.91-1.254-1.216-2.588-2.343-3.961-3.421-1.298-1.019-2.631-2-4-2.92-2.516-1.691-5.176-3.171-8-4.284-.986-.389-1.989-.712-3-1.025l-2-.541-2-.449-2-.366-3-.494c-.997-.159-1.994-.323-3-.42-1.327-.129-2.667-.174-4-.162-1.001.009-2.001.015-3 .082-1.007.067-2.001.195-3 .338M361 207l-2.154.019-1.832.129c-.847.136-1.723.329-2.412.88l-.574.575-.425.715-.47 1.741-.207 1.946-.251 1.995c-.297 1.708-.798 3.367-1.374 5-.853 2.42-1.9 4.775-3.181 7-.593 1.031-1.236 2.019-1.909 3l-.74 1-1.656 2c-.922 1.017-1.859 2.015-2.83 2.985-1.875 1.876-3.825 3.68-5.985 5.226-1.579 1.131-3.266 2.109-5 2.979-2.861 1.435-5.901 2.535-9 3.332-.991.254-1.995.479-3 .67-.997.19-1.993.386-3 .519-1.327.174-2.661.261-4 .235-2.362-.046-4.696-.462-7-.961-1.007-.218-2.008-.453-3-.731-1.012-.284-2.007-.613-3-.954-1.366-.469-2.709-1.031-4-1.677-1.736-.868-3.392-1.898-5-2.983-1.021-.688-2.031-1.396-2.999-2.158-1.38-1.086-2.687-2.259-3.908-3.522-1.77-1.832-3.311-3.85-4.733-5.96-1.292-1.916-2.493-3.898-3.459-6-.448-.977-.852-1.983-1.201-3-.341-.993-.67-1.989-.954-3-.278-.992-.513-1.993-.731-3-.5-2.308-.895-4.636-.972-7-.032-1.002 0-1.999.047-3l.081-1c.194-1.681.481-3.347.844-5 .221-1.005.444-2.018.756-3 .876-2.757 1.982-5.45 3.353-8l1.144-2 1.305-1.999 1.467-1.986c.747-.986 1.557-1.941 2.4-2.844 1.409-1.512 2.962-2.866 4.575-4.156.973-.778 1.971-1.517 2.985-2.241l2-1.306c.963-.61 1.982-1.147 3-1.658.983-.493 1.986-.931 3-1.356l2-.755 2-.657 2-.539c.986-.249 1.998-.407 3-.579 1.65-.282 3.321-.582 5-.584 1.677-.003 3.343.305 5 .53l2 .264c1.006.154 2.005.317 3 .534 1.352.295 2.679.671 4 1.081l2 .716 1 .414c1.015.454 2.02.919 3 1.445 1.38.74 2.703 1.567 4 2.445l2 1.392 1 .648 1.995.885.985.114.957-.15 1.686-1.034.625-.788.406-.885.139-.932-.139-.933-1.031-1.785-1.686-1.62-1.942-1.46c-.977-.66-1.961-1.313-2.995-1.883-2.572-1.417-5.23-2.659-8-3.639-1.315-.465-2.649-.875-4-1.221-.994-.254-1.996-.462-3-.67-1.321-.274-2.658-.503-4-.637-1.33-.134-2.665-.155-4-.167l-3-.004c-2 .002-4.008-.029-6 .171-1.344.134-2.676.372-4 .637-1.345.269-2.685.568-4 .963-1.356.407-2.691.9-4 1.437-1.703.697-3.388 1.414-5 2.307-1.734.96-3.37 2.082-5 3.206l-1.996 1.435-1.965 1.513c-.955.788-1.901 1.599-2.75 2.505l-1.673 1.865-1.601 1.965L271.49 178c-.711.976-1.391 1.971-2.023 3-.601.978-1.15 1.984-1.682 3-1.018 1.942-1.953 3.935-2.695 6-.587 1.637-1.028 3.317-1.46 5-.593 2.306-1.202 4.627-1.456 7-.178 1.659-.172 3.334-.172 5 0 1.667.002 3.339.169 5 .134 1.342.363 2.679.637 4 .208 1.004.417 2.006.67 3 .258 1.01.557 2.006.869 3l1.001 3c.358 1.012.728 2.02 1.167 3 .936 2.093 2.108 4.076 3.351 6 1.587 2.458 3.332 4.824 5.308 6.985 1.495 1.636 3.111 3.146 4.827 4.547 2.483 2.028 5.172 3.833 7.999 5.345 2.248 1.201 4.607 2.193 7 3.068 1.318.482 2.649.93 4 1.309 1.321.37 2.658.66 4 .938 1.321.274 2.658.503 4 .637 1.328.133 2.666.166 4 .166 1.668 0 3.339.001 5-.166 1.682-.168 3.345-.496 5-.833l3-.661 1-.256 2-.599 3-1.096c1.357-.521 2.703-1.1 4-1.757 1.374-.697 2.713-1.479 4-2.327 1.015-.668 2.013-1.351 3-2.061l1-.757 1.999-1.666c1.011-.92 2.005-1.852 2.961-2.831 1.24-1.269 2.427-2.588 3.522-3.985 1.007-1.283 1.933-2.631 2.819-4 1.248-1.928 2.402-3.919 3.376-6 1.492-3.19 2.564-6.562 3.308-10 .357-1.649.673-3.316.844-4.995.204-1.995.165-4.004.171-6.005m74-33.7c1.657-.239 3.328-.292 5-.292 1.002 0 2 .03 3 .082l1 .084 2 .291c1.008.202 2.007.425 3 .694 1.706.462 3.389 1.014 5 1.745 3.33 1.511 6.333 3.654 8.96 6.189 3.21 3.099 5.872 6.765 7.565 10.907.529 1.296.967 2.644 1.316 4 .425 1.651.804 3.302.985 5 .107.996.144 1.999.155 3 .016 1.338-.04 2.667-.152 4-.084 1.008-.273 2.005-.448 3-.236 1.346-.553 2.701-.979 4-.568 1.733-1.342 3.392-2.198 5-1.297 2.435-2.812 4.78-4.672 6.826l-1.706 1.709-.916.796-1.925 1.51-1.986 1.409-1.999 1.272-1 .563-1 .512-2 .844-2 .631c-.995.249-1.985.477-3 .627-2.315.342-4.666.301-7 .301l-4-.04-2-.144-2-.334c-1.011-.216-2.024-.503-3-.845-1.013-.355-2.021-.711-3-1.156-1.036-.47-2.039-1.005-3-1.614-2.178-1.383-4.139-3.086-5.96-4.907-2.096-2.096-4.033-4.379-5.508-6.96-.903-1.582-1.594-3.274-2.169-5-.544-1.631-.971-3.291-1.179-5-.201-1.656-.175-3.335-.183-5l.003-4c.021-1.335.021-2.672.181-4 .123-1.017.324-2.015.604-3 .491-1.73 1.218-3.394 2.021-5 1.237-2.473 2.704-4.866 4.519-6.96.84-.969 1.744-1.872 2.711-2.714.941-.82 1.943-1.563 2.961-2.282l1.999-1.333 2-1.192 2-.99c1.292-.57 2.639-.999 4-1.369 1.315-.359 2.65-.665 4-.86m120 .001c1.986-.293 3.997-.299 6-.299 1.671 0 3.335.024 5 .172l1 .127 1 .167 2 .459c2.458.666 4.792 1.69 7 2.953 1.033.591 2.02 1.236 3 1.909l.999.74 1.986 1.656.975.908 1.855 1.922c2.139 2.38 3.967 5.062 5.28 7.985.58 1.292 1.045 2.626 1.39 4 .331 1.316.538 2.663.76 4 .276 1.655.584 3.319.626 5 .051 2.024-.294 4.011-.626 6-.222 1.337-.429 2.684-.76 4-.256 1.021-.575 2.022-.964 3-1.323 3.321-3.341 6.331-5.706 8.996-1.748 1.971-3.671 3.829-5.815 5.367-1.559 1.117-3.266 2.029-5 2.841l-2 .869-1 .379-2 .621c-.995.248-1.985.476-3 .626-2.314.342-4.667.308-7 .3l-3-.039-2-.144-2-.334c-1.011-.216-2.025-.503-3-.845-1.013-.355-2.021-.711-3-1.156-1.036-.47-2.039-1.005-3-1.614-2.185-1.387-4.141-3.1-5.985-4.907-.972-.953-1.897-1.944-2.802-2.961L533.638 224l-1.275-2c-.559-.963-1.043-1.978-1.483-3-.421-.979-.792-1.977-1.095-3-.484-1.635-.751-3.321-1.03-5-.332-1.989-.677-3.976-.626-6 .042-1.681.35-3.345.626-5 .222-1.337.429-2.684.76-4 .256-1.021.575-2.022.964-3 1.323-3.321 3.341-6.33 5.706-8.996 1.748-1.971 3.671-3.829 5.815-5.367 1.559-1.117 3.266-2.029 5-2.841l2-.869 1-.379 2-.621c.994-.248 1.985-.476 3-.626m121 0c1.986-.293 3.997-.299 6-.299 1.666 0 3.341-.007 5 .172 1.698.182 3.35.559 5 .986 1.36.352 2.716.798 4 1.369 2.527 1.125 4.797 2.716 6.911 4.486 2.743 2.298 5.229 4.949 7.135 7.989 1.181 1.885 2.1 3.92 2.888 5.996.738 1.943 1.397 3.946 1.74 6 .331 1.978.336 4 .321 6-.009 1.334-.027 2.672-.169 4-.144 1.352-.404 2.686-.75 4-.268 1.015-.591 2.015-.953 3-.503 1.369-1.081 2.713-1.768 4-.739 1.385-1.579 2.732-2.526 3.985-.735.974-1.472 1.939-2.294 2.844-.822.906-1.705 1.747-2.625 2.552l-1.925 1.575-1.986 1.434-1.999 1.197c-1.274.684-2.632 1.246-4 1.713-1.639.56-3.287 1.088-5 1.374-2.308.386-4.668.326-7 .326l-3-.015c-1.001-.021-2.005-.049-3-.169l-2-.334-1-.243-2-.602c-1.017-.321-2.031-.712-3-1.156-1.028-.47-2.058-.986-3-1.614l-2-1.399-.999-.797-.997-.856-1.964-1.855c-2.096-2.096-4.033-4.379-5.508-6.96-.905-1.584-1.587-3.275-2.17-5-.554-1.638-.982-3.311-1.347-5-.498-2.297-.947-4.639-.886-7 .035-1.346.247-2.678.487-4 .243-1.341.523-2.68.862-4 .711-2.76 1.635-5.517 3.054-8 1.246-2.18 2.82-4.156 4.561-5.96l1.922-1.855.989-.856 1.996-1.54 1-.684 2-1.225c1.598-.914 3.265-1.714 5-2.331 1.618-.576 3.301-.997 5-1.248M311 240v-8l-1.671-.102-1.489-.224-1.865-.438-.98-.291-1.995-.71-2-.909c-1.056-.517-2.057-1.184-2.999-1.884l-1.986-1.63-.975-.906-.946-.946-1.754-1.964-.782-.997-.705-.999-1.179-2c-.506-.964-.921-1.976-1.286-3-.463-1.301-.833-2.638-1.062-4-.278-1.648-.331-3.332-.307-5 .014-1.006.071-1.999.166-3l.144-1 .2-1 .26-1c.326-1.023.67-2.027 1.131-3l1.075-2 .654-1 1.565-1.999c.904-1.017 1.825-2.01 2.801-2.958l1.986-1.829.999-.82 1-.745 2-1.232 2-.934 1-.374 2-.58c1.643-.379 3.319-.487 5-.51 1.338-.019 2.668.04 4 .166l1 .144c1.017.15 2.031.443 3 .78 1.03.358 2.037.792 3 1.305 1.403.746 2.712 1.65 3.961 2.63 1.264.992 2.473 2.071 3.571 3.245.811.867 1.555 1.788 2.247 2.75.685.952 1.285 1.948 1.872 2.962l1.022 1.999.859 1.998.679 1.977.46 1.865.227 1.489L337 207h7l-.04-4.045-.144-1.96c-.212-1.708-.635-3.364-1.179-4.995-.575-1.727-1.269-3.415-2.169-5-.992-1.749-2.194-3.371-3.483-4.91-1.788-2.136-3.791-4.12-6.024-5.789-.942-.704-1.928-1.379-2.962-1.941-1.3-.707-2.622-1.352-3.999-1.895-1.306-.516-2.645-.94-4-1.306-1.642-.444-3.307-.804-5-.985-1.657-.178-3.336-.182-5-.169-2.015.015-4.027.072-6 .524-1.376.316-2.701.801-4 1.348-1.016.427-2.017.898-3 1.396-3.516 1.783-6.863 3.969-9.532 6.901-1.862 2.045-3.373 4.393-4.672 6.826-.524.983-.999 1.985-1.458 3l-.79 2-.327 1-.294 1-.459 2c-.437 2.313-.467 4.655-.466 7 0 2.002-.007 4.019.324 6 .226 1.357.59 2.699 1.034 4 .581 1.704 1.205 3.39 2.017 5l1.102 2 .629 1 1.421 1.999c.779 1.05 1.675 2.006 2.564 2.961l.947.947.975.908 1.986 1.656c1.852 1.432 3.866 2.657 5.999 3.625 1.612.731 3.294 1.282 5 1.745.984.267 1.976.49 2.975.694l1.865.291 1.001.084L311 240m-3-49.358l-2 .725-1 .473-.999.527-1.986 1.271-1.907 1.575-1.689 1.83-.716.972-1.13 1.986c-1.04 2.166-1.493 4.607-1.493 6.999l.109 2 .141 1 .474 1.995.769 1.942.517.896.613.79.715.625 1.67.545 1.761-.545.783-.625.637-.79.444-.896.26-1.942-.306-1.995-.187-1-.117-1 .125-1.996.696-1.96.559-.935.691-.881 1.675-1.485 1.906-.982 1.985-.399 1.985.196 1.91.764.891.572.82.679.74.771 1.182 1.75.715 1.921.173 1.986-.262 1.999-.246 1.995.07.985.259.957.47.896.65.79.791.625.871.406h1.761l1.517-1.031.613-.79.517-.896.769-1.942.474-1.995.222-2 .028-1-.028-1-.222-2-.474-2-.344-1-.425-.999-.517-.997-1.329-1.961-1.689-1.829-1.907-1.565-.989-.654-.997-.578-1.999-.934-2-.693-1-.257-1-.189-2-.146-1 .055-2 .389z"/>
</svg>
